# AST/ASF file generated using VICON BodyLanguage
# -----------------------------------------------
:version 1.10
:name VICON
:units
  mass 1.0
  length 0.45
  angle deg
:documentation
   .ast/.asf automatically generated from VICON data using
   VICON BodyBuilder and BodyLanguage model FoxedUp or BRILLIANT.MOD
:root
   order TX TY TZ RX RY RZ
   axis XYZ
   position 0 0 0  
   orientation 0 0 0 
:bonedata
  begin
     id 1 
     name lhipjoint
     direction 0.573633 -0.743009 0.344793 
     length 2.46257 
     axis 0 0 0  XYZ
  end
  begin
     id 2 
     name lfemur
     direction 0.34202 -0.939693 0  
     length 7.3842  
     axis 0 0 20  XYZ
    dof rx ry rz
    limits (-160.0 20.0)
           (-70.0 70.0)
           (-60.0 70.0)
  end
  begin
     id 3 
     name ltibia
     direction 0.34202 -0.939693 0   
     length 7.50407   
     axis 0 0 20   XYZ
    dof rx
    limits (-10.0 170.0)
  end
  begin
     id 4 
     name lfoot
     direction 0.110749 -0.304281 0.946123   
     length 1.95925   
     axis -90 7.62852e-016 20   XYZ
    dof rx rz
    limits (-45.0 90.0)
           (-70.0 20.0)
  end
  begin
     id 5 
     name ltoes
     direction 1.53554e-011 -4.21843e-011 1   
     length 0.978318   
     axis -90 7.62852e-016 20   XYZ
    dof rx
    limits (-90.0 20.0)
  end
  begin
     id 6 
     name rhipjoint
     direction -0.488109 -0.791693 0.367385   
     length 2.31113  
     axis 0 0 0  XYZ 
  end
  begin
     id 7 
     name rfemur
     direction -0.34202 -0.939693 0   
     length 7.40965   
     axis 0 0 -20   XYZ
    dof rx ry rz
    limits (-160.0 20.0)
           (-70.0 70.0)
           (-70.0 60.0)
  end
  begin
     id 8 
     name rtibia
     direction -0.34202 -0.939693 0   
     length 7.55548   
     axis 0 0 -20   XYZ
    dof rx
    limits (-10.0 170.0)
 end
 begin
     id 9 
     name rfoot
     direction -0.127594 -0.350561 0.927808   
     length 2.07199  
     axis -90 -7.62852e-016 -20   XYZ
    dof rx rz
    limits (-45.0 90.0)
           (-20.0 70.0)
  end
  begin
     id 10 
     name rtoes
     direction -1.53542e-011 -4.21909e-011 1   
     length 1.02667   
     axis -90 -7.62852e-016 -20   XYZ
    dof rx
    limits (-90.0 20.0)
  end
  begin
     id 11 
     name lowerback
     direction -0.0103342 0.997298 -0.0727278   
     length 2.02836   
     axis 0 0 0   XYZ
    dof rx ry rz
    limits (-20.0 45.0)
           (-30.0 30.0)
           (-30.0 30.0)
  end
  begin
     id 12 
     name upperback
     direction 0.0171146 0.999786 -0.011606   
     length 2.03179   
     axis 0 0 0   XYZ
    dof rx ry rz
    limits (-20.0 45.0)
           (-30.0 30.0)
           (-30.0 30.0)
  end
  begin
     id 13 
     name thorax
     direction 0.0216927 0.999513 0.0224343   
     length 2.03882   
     axis 0 0 0   XYZ
    dof rx ry rz
    limits (-20.0 45.0)
           (-30.0 30.0)
           (-30.0 30.0)
  end
  begin
     id 14 
     name lowerneck
     direction 0.000989287 0.993907 0.110221   
     length 1.75428   
     axis 0 0 0   XYZ
    dof rx ry rz
    limits (-20.0 45.0)
           (-30.0 30.0)
           (-30.0 30.0)
  end
  begin
     id 15 
     name upperneck
     direction -0.0172474 0.994813 -0.100253   
     length 1.77058   
     axis 0 0 0   XYZ
    dof rx ry rz
    limits (-20.0 45.0)
           (-30.0 30.0)
           (-30.0 30.0)
  end
  begin
     id 16
     name head
     direction -0.00486455 0.99894 -0.0457663  
     length 1.77427  
     axis 0 0 0   XYZ
    dof rx ry rz
    limits (-20.0 45.0)
           (-30.0 30.0)
           (-30.0 30.0)
  end
  begin
     id 17 
     name lclavicle
     direction 0.927314 0.333734 -0.169441  
     length 3.97584  
     axis 0 0 0   XYZ
    dof ry rz
    limits (-20.0 10.0)
           (0.0 20.0)
  end
  begin
     id 18 
     name lhumerus
     direction 1 -4.48965e-011 -3.25313e-028   
     length 4.76468   
     axis 180 -30 -90   XYZ
    dof rx ry rz
    limits (-60.0 90.0)
           (-90.0 90.0)
           (-90.0 90.0)
  end
  begin
     id 19
     name lradius
     direction 1 -4.48969e-011 -2.8465e-028   
     length 3.52712   
     axis -180 -30 -90   XYZ
    dof rx
    limits (-10.0 170.0)
  end
  begin
     id 20
     name lwrist
     direction 1 -4.4896e-011 -7.78665e-028   
     length 1.76356   
     axis 1.91374e-015 90 90   XYZ
    dof ry
    limits (-180.0 0.0)
 end
  begin
     id 21 
     name lhand
     direction 1 -4.48959e-011 -1.55733e-027   
     length 0.859564   
     axis 9.9371e-016 90 90   XYZ
    dof rx rz
    limits (-90.0 90.0)
           (-45.0 45.0)
  end
  begin
     id 22 
     name lfingers
     direction 1 -4.48965e-011 -3.11466e-027   
     length 0.693002   
     axis 1.98742e-015 90 90   XYZ
    dof rx
    limits (0.0 90.0)
  end
  begin
     id 23
     name lthumb
     direction 0.707107 -6.34948e-011 0.707107   
     length 0.995017   
     axis -90 45 2.85299e-015   XYZ
    dof rx rz
    limits (-45.0 45.0)
           (-45.0 45.0)
  end
  begin
     id 24 
     name rclavicle
     direction -0.899388 0.348209 -0.264294   
     length 3.68366  
     axis 0 0 0   XYZ 
    dof ry rz
    limits (-10.0 20.0)
           (-20.0 0.0)
  end
  begin
     id 25 
     name rhumerus
     direction -1 -4.48965e-011 -3.01536e-027  
     length 4.90577   
     axis 180 30 90   XYZ
    dof rx ry rz
    limits (-90.0 60.0)
           (-90.0 90.0)
           (-90.0 90.0)
  end
  begin
     id 26 
     name rradius
     direction -1 -4.48966e-011 3.93291e-027   
     length 3.42692   
     axis -180 30 90   XYZ
    dof rx
    limits (-10.0 170.0)
  end
  begin
     id 27 
     name rwrist
     direction -1 -4.48969e-011 -7.78665e-028   
     length 1.71346   
     axis 1.91374e-015 -90 -90   XYZ
    dof ry
    limits (-180.0 0.0)
  end
  begin
     id 28
     name rhand
     direction -1 -4.48967e-011 -1.55733e-027   
     length 0.740957   
     axis 9.9371e-016 -90 -90   XYZ
    dof rx rz
    limits (-90.0 90.0)
           (-45.0 45.0)
  end
  begin
     id 29
     name rfingers
     direction -1 -4.48949e-011 -3.11466e-027   
     length 0.597378   
     axis 1.98742e-015 -90 -90   XYZ
    dof rx
    limits (0.0 90.0)
  end
  begin
     id 30
     name rthumb
     direction -0.707107 -6.34931e-011 0.707107   
     length 0.857719   
     axis -90 -45 -2.85299e-015   XYZ
    dof rx rz
    limits (-45.0 45.0)
           (-45.0 45.0)
  end
:hierarchy
  begin
    root lhipjoint rhipjoint lowerback
    lhipjoint lfemur
    lfemur ltibia
    ltibia lfoot
    lfoot ltoes
    rhipjoint rfemur
    rfemur rtibia
    rtibia rfoot
    rfoot rtoes
    lowerback upperback
    upperback thorax
    thorax lowerneck lclavicle rclavicle
    lowerneck upperneck
    upperneck head
    lclavicle lhumerus
    lhumerus lradius
    lradius lwrist
    lwrist lhand lthumb
    lhand lfingers
    rclavicle rhumerus
    rhumerus rradius
    rradius rwrist
    rwrist rhand rthumb
    rhand rfingers
  end

#!OML:ASF E:\I on waltz\AllaLogoMonkeySwing\Project 1\Capture day 1\Session 1\Subject1.ASF
:FULLY-SPECIFIED
:DEGREES
292
root 3.84601 17.7645 7.55738 179.221 -184.127 180.275
lowerback 8.5392 1.63223 -1.1331
upperback -0.798057 2.09905 0.726241
thorax -5.69473 1.08113 1.11404
lowerneck -11.5515 6.43595 4.35483
upperneck 15.157 9.9453 -10.7869
head 7.32993 4.143 -3.20838
rclavicle 1.99095e-014 -2.5842e-015
rhumerus -26.9588 -21.8051 -79.4727
rradius 24.9358
rwrist 8.60678
rhand -6.57723 -35.521
rfingers 7.12502
rthumb 19.2774 -64.5855
lclavicle 1.99095e-014 -2.5842e-015
lhumerus -43.8859 19.6848 79.973
lradius 41.1418
lwrist -4.11162
lhand -5.21787 -11.3063
lfingers 7.12502
lthumb 20.5841 17.6223
rfemur -0.696244 -1.43292 6.76551
rtibia 18.9822
rfoot -13.7842 -11.4725
rtoes 6.79778
lfemur 4.7397 3.62237 -11.0013
ltibia 7.67912
lfoot -5.51007 10.9425
ltoes -38.7583
293
root 3.8156 17.7556 7.54552 179.001 -184.199 179.817
lowerback 8.58972 1.69766 -0.742096
upperback -0.676253 2.23503 0.885126
thorax -5.59068 1.1378 1.04227
lowerneck -11.257 6.76257 4.58979
upperneck 14.9012 10.3557 -10.9079
head 7.24767 4.36193 -3.24691
rclavicle 1.71452e-015 -4.37326e-015
rhumerus -26.7671 -21.3524 -79.8394
rradius 25.2979
rwrist 8.52341
rhand -6.4773 -35.3423
rfingers 7.12502
rthumb 19.3735 -64.3972
lclavicle 1.71452e-015 -4.37326e-015
lhumerus -43.8227 19.3831 80.4366
lradius 40.6477
lwrist -4.04551
lhand -4.76689 -11.5216
lfingers 7.12502
lthumb 21.0174 17.3596
rfemur -0.828598 -1.31866 7.47948
rtibia 19.5352
rfoot -14.0843 -11.7762
rtoes 7.43709
lfemur 4.81326 3.66761 -10.2355
ltibia 7.80119
lfoot -5.53771 10.7581
ltoes -38.8939
294
root 3.77529 17.7468 7.53319 178.866 -184.3 179.849
lowerback 8.59921 1.80435 -0.939024
upperback -0.577784 2.35945 0.943428
thorax -5.50675 1.2052 1.19818
lowerneck -10.8403 7.19055 4.96679
upperneck 14.5866 10.9046 -11.1641
head 7.15452 4.65087 -3.34064
rclavicle 1.56667e-014 -1.78906e-015
rhumerus -26.6146 -21.0442 -80.0561
rradius 25.5132
rwrist 8.56424
rhand -6.48524 -35.0808
rfingers 7.12502
rthumb 19.3658 -64.1364
lclavicle 1.56667e-014 -1.78906e-015
lhumerus -43.7615 19.0546 80.9423
lradius 40.2147
lwrist -3.81577
lhand -4.33745 -11.4384
lfingers 7.12502
lthumb 21.4299 17.3963
rfemur -1.05648 -1.18502 7.63877
rtibia 20.1537
rfoot -14.3814 -12.1543
rtoes 8.44651
lfemur 4.7879 3.66996 -10.0362
ltibia 7.95244
lfoot -5.57057 10.6331
ltoes -39.0968
295
root 3.73364 17.737 7.51591 178.75 -184.46 180.143
lowerback 8.68532 1.92005 -1.3156
upperback -0.498967 2.47182 0.912909
thorax -5.49123 1.27047 1.36127
lowerneck -10.376 7.70807 5.54487
upperneck 14.311 11.5931 -11.6381
head 7.10814 5.00173 -3.52265
rclavicle 1.9953e-014 -1.19271e-015
rhumerus -26.5169 -20.8289 -80.1556
rradius 25.6952
rwrist 8.57306
rhand -6.36018 -34.9608
rfingers 7.12502
rthumb 19.4861 -64.0043
lclavicle 1.9953e-014 -1.19271e-015
lhumerus -43.6591 18.7956 81.3833
lradius 39.7513
lwrist -3.69924
lhand -3.80936 -11.3673
lfingers 7.12502
lthumb 21.937 17.4089
rfemur -1.3083 -1.27537 7.44423
rtibia 20.8356
rfoot -14.6327 -12.3624
rtoes 9.18538
lfemur 4.7097 3.51334 -10.2262
ltibia 8.13738
lfoot -5.59668 10.6515
ltoes -39.2014
296
root 3.6939 17.7273 7.49868 178.564 -184.654 180.211
lowerback 8.82651 2.00814 -1.28733
upperback -0.388799 2.58852 0.881701
thorax -5.45681 1.32567 1.2944
lowerneck -9.92452 8.36457 6.17705
upperneck 14.0679 12.4559 -12.0092
head 7.09575 5.44602 -3.65815
rclavicle -1.84062e-014 5.36719e-015
rhumerus -26.3794 -20.7313 -80.2243
rradius 25.8321
rwrist 8.54771
rhand -6.01378 -34.9886
rfingers 7.12502
rthumb 19.8191 -63.9981
lclavicle -1.84062e-014 5.36719e-015
lhumerus -43.4714 18.4083 81.7531
lradius 39.2739
lwrist -3.60157
lhand -3.23469 -11.4229
lfingers 7.12502
lthumb 22.4887 17.2876
rfemur -1.46766 -1.50091 7.5025
rtibia 21.5127
rfoot -14.8741 -12.4423
rtoes 9.41873
lfemur 4.66441 3.34584 -10.1789
ltibia 8.40773
lfoot -5.68661 10.6366
ltoes -39.1978
297
root 3.64799 17.7181 7.48366 178.354 -184.889 180.072
lowerback 8.92817 2.09822 -0.997843
upperback -0.23721 2.73801 0.893539
thorax -5.34707 1.3901 1.12342
lowerneck -9.30851 9.23064 7.12792
upperneck 13.6751 13.6108 -12.6763
head 7.09064 6.0368 -3.90845
rclavicle 1.82012e-015 -3.37934e-015
rhumerus -26.1765 -20.7837 -80.2122
rradius 25.8811
rwrist 8.4815
rhand -5.76474 -34.8358
rfingers 7.12502
rthumb 20.0585 -63.8204
lclavicle 1.82012e-015 -3.37934e-015
lhumerus -43.1946 17.8868 82.1325
lradius 38.8214
lwrist -3.49858
lhand -2.72727 -11.4871
lfingers 7.12502
lthumb 22.9757 17.1637
rfemur -1.5695 -1.70729 7.83973
rtibia 22.1377
rfoot -15.1279 -12.5165
rtoes 9.50416
lfemur 4.60577 3.26245 -9.83175
ltibia 8.72797
lfoot -5.81959 10.5035
ltoes -39.2898
298
root 3.59156 17.7081 7.46758 178.171 -185.193 179.957
lowerback 9.02529 2.22459 -0.716902
upperback -0.102862 2.93473 0.897252
thorax -5.25269 1.47873 0.942274
lowerneck -8.47919 10.1921 7.98805
upperneck 13.1118 14.8996 -13.2635
head 7.01559 6.70962 -4.10862
rclavicle -1.207e-014 -7.55382e-015
rhumerus -26.0966 -21.0248 -80.0558
rradius 25.8986
rwrist 8.41177
rhand -5.72013 -34.4885
rfingers 7.12502
rthumb 20.1014 -63.4686
lclavicle -1.207e-014 -7.55382e-015
lhumerus -42.9013 17.2331 82.523
lradius 38.406
lwrist -3.45088
lhand -2.36456 -11.6041
lfingers 7.12502
lthumb 23.3237 17.003
rfemur -1.67457 -1.86602 8.19499
rtibia 22.728
rfoot -15.4098 -12.6809
rtoes 9.54586
lfemur 4.48883 3.19134 -9.4675
ltibia 9.03609
lfoot -5.91456 10.3
ltoes -39.5408
299
root 3.52782 17.6978 7.4512 178.031 -185.506 180.004
lowerback 9.1338 2.3932 -0.562909
upperback -0.0163959 3.17128 0.836584
thorax -5.21705 1.5901 0.758295
lowerneck -7.34453 11.2813 8.77412
upperneck 12.4424 16.354 -13.6269
head 6.86671 7.49305 -4.21928
rclavicle -1.47722e-014 -5.96354e-015
rhumerus -26.1883 -21.3009 -79.851
rradius 25.9268
rwrist 8.23591
rhand -5.7561 -34.4206
rfingers 7.12502
rthumb 20.0668 -63.4043
lclavicle -1.47722e-014 -5.96354e-015
lhumerus -42.6756 16.429 82.847
lradius 38.1142
lwrist -3.44014
lhand -2.0576 -11.6973
lfingers 7.12502
lthumb 23.6181 16.8722
rfemur -1.79759 -1.96919 8.38832
rtibia 23.2632
rfoot -15.7037 -12.8978
rtoes 9.63509
lfemur 4.35221 2.9716 -9.32483
ltibia 9.27014
lfoot -5.87168 10.2129
ltoes -39.869
300
root 3.45819 17.6884 7.4364 177.928 -185.726 180.073
lowerback 9.19717 2.60331 -0.441418
upperback 0.0583948 3.45941 0.76592
thorax -5.16858 1.72792 0.576664
lowerneck -6.28021 12.4172 9.47083
upperneck 11.9783 17.8935 -13.808
head 6.79789 8.31582 -4.24155
rclavicle 1.43808e-014 -4.77083e-015
rhumerus -26.3185 -21.5001 -79.642
rradius 26.0031
rwrist 7.86104
rhand -5.7952 -34.7302
rfingers 7.12502
rthumb 20.0292 -63.7179
lclavicle 1.43808e-014 -4.77083e-015
lhumerus -42.4213 15.7533 83.0113
lradius 37.8598
lwrist -3.54015
lhand -1.64695 -11.7687
lfingers 7.12502
lthumb 24.012 16.7494
rfemur -1.96944 -2.0205 8.5806
rtibia 23.7844
rfoot -16.005 -13.0219
rtoes 9.85181
lfemur 4.22432 2.68373 -9.21712
ltibia 9.45123
lfoot -5.74003 10.2911
ltoes -40.1002
